<mxfile host="app.diagrams.net" modified="2022-06-24T04:00:41.622Z" agent="5.0 (Windows NT 10.0; Win64; x64) AppleWebKit/537.36 (KHTML, like Gecko) Chrome/102.0.0.0 Safari/537.36" etag="rNIXgaWcnYD4_DCrqTWL" version="20.0.3" type="github">
  <diagram name="Page-1" id="0783ab3e-0a74-02c8-0abd-f7b4e66b4bec">
    <mxGraphModel dx="1108" dy="450" grid="1" gridSize="10" guides="1" tooltips="1" connect="1" arrows="1" fold="1" page="1" pageScale="1" pageWidth="850" pageHeight="1100" background="none" math="0" shadow="0">
      <root>
        <mxCell id="0" />
        <mxCell id="1" parent="0" />
        <mxCell id="1c1d494c118603dd-1" value="Pool" style="swimlane;html=1;childLayout=stackLayout;startSize=20;rounded=0;shadow=0;comic=0;labelBackgroundColor=none;strokeWidth=1;fontFamily=Verdana;fontSize=12;align=center;" parent="1" vertex="1">
          <mxGeometry x="40" y="20" width="750" height="990" as="geometry" />
        </mxCell>
        <mxCell id="1c1d494c118603dd-2" value="Plaintiff" style="swimlane;html=1;startSize=20;" parent="1c1d494c118603dd-1" vertex="1">
          <mxGeometry y="20" width="250" height="970" as="geometry" />
        </mxCell>
        <mxCell id="60571a20871a0731-4" value="" style="ellipse;whiteSpace=wrap;html=1;rounded=0;shadow=0;comic=0;labelBackgroundColor=none;strokeWidth=1;fillColor=#000000;fontFamily=Verdana;fontSize=12;align=center;" parent="1c1d494c118603dd-2" vertex="1">
          <mxGeometry x="30" y="40" width="30" height="30" as="geometry" />
        </mxCell>
        <mxCell id="1c1d494c118603dd-27" style="edgeStyle=orthogonalEdgeStyle;rounded=0;html=1;labelBackgroundColor=none;startArrow=none;startFill=0;startSize=5;endArrow=classicThin;endFill=1;endSize=5;jettySize=auto;orthogonalLoop=1;strokeWidth=1;fontFamily=Verdana;fontSize=12;entryX=0.458;entryY=0;entryDx=0;entryDy=0;entryPerimeter=0;" parent="1c1d494c118603dd-2" source="60571a20871a0731-4" target="2UfcmBDN33OV_tJoAeHY-19" edge="1">
          <mxGeometry relative="1" as="geometry">
            <mxPoint x="125" y="80" as="targetPoint" />
          </mxGeometry>
        </mxCell>
        <mxCell id="2UfcmBDN33OV_tJoAeHY-19" value="&lt;span style=&quot;font-size: 11px; background-color: rgb(255, 255, 255);&quot;&gt;files the complaint&lt;/span&gt;&lt;br style=&quot;font-size: 11px;&quot;&gt;&lt;span style=&quot;font-size: 11px; background-color: rgb(255, 255, 255);&quot;&gt;to the court&lt;/span&gt;" style="rounded=1;whiteSpace=wrap;html=1;shadow=0;comic=0;labelBackgroundColor=none;strokeWidth=1;fontFamily=Verdana;fontSize=12;align=center;arcSize=50;" parent="1c1d494c118603dd-2" vertex="1">
          <mxGeometry x="65" y="100" width="120" height="50" as="geometry" />
        </mxCell>
        <mxCell id="2UfcmBDN33OV_tJoAeHY-32" value="complaint filing" style="shape=callout;whiteSpace=wrap;html=1;perimeter=calloutPerimeter;fillColor=#00FFFF;base=15;" parent="1c1d494c118603dd-2" vertex="1">
          <mxGeometry x="130" y="50" width="90" height="60" as="geometry" />
        </mxCell>
        <mxCell id="2UfcmBDN33OV_tJoAeHY-35" value="&lt;span style=&quot;font-size: 11px; background-color: rgb(255, 255, 255);&quot;&gt;file for&amp;nbsp;&lt;br&gt;&lt;/span&gt;default judgement" style="rounded=1;whiteSpace=wrap;html=1;shadow=0;comic=0;labelBackgroundColor=none;strokeWidth=1;fontFamily=Verdana;fontSize=12;align=center;arcSize=50;" parent="1c1d494c118603dd-2" vertex="1">
          <mxGeometry x="60.44" y="180" width="125" height="50" as="geometry" />
        </mxCell>
        <mxCell id="2UfcmBDN33OV_tJoAeHY-43" style="edgeStyle=orthogonalEdgeStyle;rounded=0;orthogonalLoop=1;jettySize=auto;html=1;" parent="1c1d494c118603dd-2" source="1c1d494c118603dd-25" target="2UfcmBDN33OV_tJoAeHY-35" edge="1">
          <mxGeometry relative="1" as="geometry" />
        </mxCell>
        <mxCell id="1c1d494c118603dd-25" value="if defendent does not&lt;br&gt;respond within specfied days" style="shape=note;whiteSpace=wrap;html=1;rounded=0;shadow=0;comic=0;labelBackgroundColor=none;strokeWidth=1;fontFamily=Verdana;fontSize=12;align=center;size=20;fillColor=#FFFF00;" parent="1c1d494c118603dd-2" vertex="1">
          <mxGeometry x="32.94" y="260" width="180" height="50" as="geometry" />
        </mxCell>
        <mxCell id="2UfcmBDN33OV_tJoAeHY-46" value="&lt;span style=&quot;font-size: 11px; background-color: rgb(255, 255, 255);&quot;&gt;file motion for &lt;br&gt;summary judgement&lt;/span&gt;" style="rounded=1;whiteSpace=wrap;html=1;shadow=0;comic=0;labelBackgroundColor=none;strokeWidth=1;fontFamily=Verdana;fontSize=12;align=center;arcSize=50;" parent="1c1d494c118603dd-2" vertex="1">
          <mxGeometry x="35.44" y="425" width="150" height="50" as="geometry" />
        </mxCell>
        <mxCell id="2UfcmBDN33OV_tJoAeHY-47" value="&lt;span style=&quot;font-size: 11px; background-color: rgb(255, 255, 255);&quot;&gt;file motion for &lt;br&gt;judgement on the pleading&lt;/span&gt;" style="rounded=1;whiteSpace=wrap;html=1;shadow=0;comic=0;labelBackgroundColor=none;strokeWidth=1;fontFamily=Verdana;fontSize=12;align=center;arcSize=50;" parent="1c1d494c118603dd-2" vertex="1">
          <mxGeometry x="24.560000000000002" y="580" width="171.75" height="50" as="geometry" />
        </mxCell>
        <mxCell id="2UfcmBDN33OV_tJoAeHY-50" value="motion for&lt;br&gt;summary judgement" style="shape=callout;whiteSpace=wrap;html=1;perimeter=calloutPerimeter;fillColor=#00FFFF;base=10;position2=0.11;" parent="1c1d494c118603dd-2" vertex="1">
          <mxGeometry x="145.44" y="360" width="90" height="80" as="geometry" />
        </mxCell>
        <mxCell id="2UfcmBDN33OV_tJoAeHY-52" value="motion for&amp;nbsp;judgement on the pleading" style="shape=callout;whiteSpace=wrap;html=1;perimeter=calloutPerimeter;fillColor=#00FFFF;base=10;position2=0.11;" parent="1c1d494c118603dd-2" vertex="1">
          <mxGeometry x="135.44" y="510" width="90" height="80" as="geometry" />
        </mxCell>
        <mxCell id="1c1d494c118603dd-3" value="Judge" style="swimlane;html=1;startSize=20;" parent="1c1d494c118603dd-1" vertex="1">
          <mxGeometry x="250" y="20" width="250" height="970" as="geometry" />
        </mxCell>
        <mxCell id="2UfcmBDN33OV_tJoAeHY-23" value="&lt;span style=&quot;font-size: 11px; background-color: rgb(255, 255, 255);&quot;&gt;issue summons&lt;/span&gt;" style="rounded=1;whiteSpace=wrap;html=1;shadow=0;comic=0;labelBackgroundColor=none;strokeWidth=1;fontFamily=Verdana;fontSize=12;align=center;arcSize=50;" parent="1c1d494c118603dd-3" vertex="1">
          <mxGeometry x="53.5" y="100" width="120" height="50" as="geometry" />
        </mxCell>
        <mxCell id="2UfcmBDN33OV_tJoAeHY-42" style="edgeStyle=orthogonalEdgeStyle;rounded=0;orthogonalLoop=1;jettySize=auto;html=1;entryX=0.5;entryY=0;entryDx=0;entryDy=0;" parent="1c1d494c118603dd-3" source="2UfcmBDN33OV_tJoAeHY-37" target="2UfcmBDN33OV_tJoAeHY-40" edge="1">
          <mxGeometry relative="1" as="geometry" />
        </mxCell>
        <mxCell id="2UfcmBDN33OV_tJoAeHY-37" value="review" style="rhombus;whiteSpace=wrap;html=1;fillColor=#FFFFFF;" parent="1c1d494c118603dd-3" vertex="1">
          <mxGeometry x="80.44" y="230" width="80" height="80" as="geometry" />
        </mxCell>
        <mxCell id="2UfcmBDN33OV_tJoAeHY-40" value="&lt;span style=&quot;font-size: 11px; background-color: rgb(255, 255, 255);&quot;&gt;accept&lt;/span&gt;" style="rounded=1;whiteSpace=wrap;html=1;shadow=0;comic=0;labelBackgroundColor=none;strokeWidth=1;fontFamily=Verdana;fontSize=12;align=center;arcSize=50;" parent="1c1d494c118603dd-3" vertex="1">
          <mxGeometry x="82.94" y="350" width="75" height="25" as="geometry" />
        </mxCell>
        <mxCell id="2UfcmBDN33OV_tJoAeHY-41" value="default judgement" style="shape=callout;whiteSpace=wrap;html=1;perimeter=calloutPerimeter;fillColor=#00FFFF;base=10;position2=0.11;" parent="1c1d494c118603dd-3" vertex="1">
          <mxGeometry x="135.44" y="310" width="70" height="60" as="geometry" />
        </mxCell>
        <mxCell id="2UfcmBDN33OV_tJoAeHY-62" style="edgeStyle=orthogonalEdgeStyle;rounded=0;orthogonalLoop=1;jettySize=auto;html=1;entryX=0.5;entryY=0;entryDx=0;entryDy=0;" parent="1c1d494c118603dd-3" source="2UfcmBDN33OV_tJoAeHY-57" target="2UfcmBDN33OV_tJoAeHY-60" edge="1">
          <mxGeometry relative="1" as="geometry" />
        </mxCell>
        <mxCell id="2UfcmBDN33OV_tJoAeHY-57" value="review" style="rhombus;whiteSpace=wrap;html=1;fillColor=#FFFFFF;" parent="1c1d494c118603dd-3" vertex="1">
          <mxGeometry x="88.94" y="410" width="80" height="80" as="geometry" />
        </mxCell>
        <mxCell id="2UfcmBDN33OV_tJoAeHY-60" value="&lt;span style=&quot;font-size: 11px; background-color: rgb(255, 255, 255);&quot;&gt;accept&lt;/span&gt;" style="rounded=1;whiteSpace=wrap;html=1;shadow=0;comic=0;labelBackgroundColor=none;strokeWidth=1;fontFamily=Verdana;fontSize=12;align=center;arcSize=50;" parent="1c1d494c118603dd-3" vertex="1">
          <mxGeometry x="91.44" y="560" width="75" height="25" as="geometry" />
        </mxCell>
        <mxCell id="2UfcmBDN33OV_tJoAeHY-38" style="edgeStyle=orthogonalEdgeStyle;rounded=0;orthogonalLoop=1;jettySize=auto;html=1;entryX=0.5;entryY=0;entryDx=0;entryDy=0;" parent="1c1d494c118603dd-1" source="2UfcmBDN33OV_tJoAeHY-35" target="2UfcmBDN33OV_tJoAeHY-37" edge="1">
          <mxGeometry relative="1" as="geometry" />
        </mxCell>
        <mxCell id="v2mLR3Y_ZtSDA0ho8HSQ-4" style="edgeStyle=orthogonalEdgeStyle;rounded=0;orthogonalLoop=1;jettySize=auto;html=1;entryX=0;entryY=0.5;entryDx=0;entryDy=0;" edge="1" parent="1c1d494c118603dd-1" source="2UfcmBDN33OV_tJoAeHY-46" target="2UfcmBDN33OV_tJoAeHY-57">
          <mxGeometry relative="1" as="geometry" />
        </mxCell>
        <mxCell id="v2mLR3Y_ZtSDA0ho8HSQ-5" style="edgeStyle=orthogonalEdgeStyle;rounded=0;orthogonalLoop=1;jettySize=auto;html=1;entryX=0;entryY=0.5;entryDx=0;entryDy=0;" edge="1" parent="1c1d494c118603dd-1" source="2UfcmBDN33OV_tJoAeHY-47" target="2UfcmBDN33OV_tJoAeHY-57">
          <mxGeometry relative="1" as="geometry" />
        </mxCell>
        <mxCell id="v2mLR3Y_ZtSDA0ho8HSQ-6" style="edgeStyle=orthogonalEdgeStyle;rounded=0;orthogonalLoop=1;jettySize=auto;html=1;entryX=1;entryY=0.5;entryDx=0;entryDy=0;" edge="1" parent="1c1d494c118603dd-1" source="2UfcmBDN33OV_tJoAeHY-54" target="2UfcmBDN33OV_tJoAeHY-57">
          <mxGeometry relative="1" as="geometry" />
        </mxCell>
        <mxCell id="v2mLR3Y_ZtSDA0ho8HSQ-7" style="edgeStyle=orthogonalEdgeStyle;rounded=0;orthogonalLoop=1;jettySize=auto;html=1;entryX=1;entryY=0.5;entryDx=0;entryDy=0;" edge="1" parent="1c1d494c118603dd-1" source="2UfcmBDN33OV_tJoAeHY-53" target="2UfcmBDN33OV_tJoAeHY-57">
          <mxGeometry relative="1" as="geometry" />
        </mxCell>
        <mxCell id="1c1d494c118603dd-4" value="Defendent" style="swimlane;html=1;startSize=20;" parent="1c1d494c118603dd-1" vertex="1">
          <mxGeometry x="500" y="20" width="250" height="970" as="geometry" />
        </mxCell>
        <mxCell id="60571a20871a0731-5" value="" style="shape=mxgraph.bpmn.shape;html=1;verticalLabelPosition=bottom;labelBackgroundColor=#ffffff;verticalAlign=top;perimeter=ellipsePerimeter;outline=end;symbol=terminate;rounded=0;shadow=0;comic=0;strokeWidth=1;fontFamily=Verdana;fontSize=12;align=center;" parent="1c1d494c118603dd-4" vertex="1">
          <mxGeometry x="100" y="880" width="40" height="40" as="geometry" />
        </mxCell>
        <mxCell id="2UfcmBDN33OV_tJoAeHY-26" value="&lt;span style=&quot;font-size: 11px; background-color: rgb(255, 255, 255);&quot;&gt;reply to summons&lt;/span&gt;" style="rounded=1;whiteSpace=wrap;html=1;shadow=0;comic=0;labelBackgroundColor=none;strokeWidth=1;fontFamily=Verdana;fontSize=12;align=center;arcSize=50;" parent="1c1d494c118603dd-4" vertex="1">
          <mxGeometry x="47.5" y="100" width="120" height="50" as="geometry" />
        </mxCell>
        <mxCell id="2UfcmBDN33OV_tJoAeHY-33" value="answer" style="shape=callout;whiteSpace=wrap;html=1;perimeter=calloutPerimeter;fillColor=#00FFFF;base=13;" parent="1c1d494c118603dd-4" vertex="1">
          <mxGeometry x="102.5" y="50" width="77.5" height="60" as="geometry" />
        </mxCell>
        <mxCell id="2UfcmBDN33OV_tJoAeHY-53" value="&lt;span style=&quot;font-size: 11px; background-color: rgb(255, 255, 255);&quot;&gt;file motion for &lt;br&gt;summary judgement&lt;/span&gt;" style="rounded=1;whiteSpace=wrap;html=1;shadow=0;comic=0;labelBackgroundColor=none;strokeWidth=1;fontFamily=Verdana;fontSize=12;align=center;arcSize=50;" parent="1c1d494c118603dd-4" vertex="1">
          <mxGeometry x="15.000000000000053" y="425" width="150" height="50" as="geometry" />
        </mxCell>
        <mxCell id="2UfcmBDN33OV_tJoAeHY-54" value="&lt;span style=&quot;font-size: 11px; background-color: rgb(255, 255, 255);&quot;&gt;file motion for &lt;br&gt;judgement on the pleading&lt;/span&gt;" style="rounded=1;whiteSpace=wrap;html=1;shadow=0;comic=0;labelBackgroundColor=none;strokeWidth=1;fontFamily=Verdana;fontSize=12;align=center;arcSize=50;" parent="1c1d494c118603dd-4" vertex="1">
          <mxGeometry x="14.999999999999947" y="560" width="171.75" height="50" as="geometry" />
        </mxCell>
        <mxCell id="2UfcmBDN33OV_tJoAeHY-55" value="motion for&lt;br&gt;summary judgement" style="shape=callout;whiteSpace=wrap;html=1;perimeter=calloutPerimeter;fillColor=#00FFFF;base=10;position2=0.11;" parent="1c1d494c118603dd-4" vertex="1">
          <mxGeometry x="135.44000000000005" y="370" width="90" height="80" as="geometry" />
        </mxCell>
        <mxCell id="2UfcmBDN33OV_tJoAeHY-56" value="motion for&amp;nbsp;judgement on the pleading" style="shape=callout;whiteSpace=wrap;html=1;perimeter=calloutPerimeter;fillColor=#00FFFF;base=10;position2=0.11;" parent="1c1d494c118603dd-4" vertex="1">
          <mxGeometry x="125.88000000000005" y="490" width="90" height="80" as="geometry" />
        </mxCell>
        <mxCell id="2UfcmBDN33OV_tJoAeHY-24" style="edgeStyle=orthogonalEdgeStyle;rounded=0;orthogonalLoop=1;jettySize=auto;html=1;entryX=0;entryY=0.5;entryDx=0;entryDy=0;" parent="1c1d494c118603dd-1" source="2UfcmBDN33OV_tJoAeHY-19" target="2UfcmBDN33OV_tJoAeHY-23" edge="1">
          <mxGeometry relative="1" as="geometry" />
        </mxCell>
        <mxCell id="2UfcmBDN33OV_tJoAeHY-27" style="edgeStyle=orthogonalEdgeStyle;rounded=0;orthogonalLoop=1;jettySize=auto;html=1;entryX=0;entryY=0.5;entryDx=0;entryDy=0;" parent="1c1d494c118603dd-1" source="2UfcmBDN33OV_tJoAeHY-23" target="2UfcmBDN33OV_tJoAeHY-26" edge="1">
          <mxGeometry relative="1" as="geometry" />
        </mxCell>
      </root>
    </mxGraphModel>
  </diagram>
</mxfile>
